# xmcd
#
# Track frame offsets: 
#        150
#        22632
#        44010
#        67065
#        88323
#        111185
#        138305
#        160031
#        177021
#        200639
#        225272
#        248714
#        264779
#
# Disc length: 3841 seconds
#
# Revision: 2
# Processed by: cddbd v1.5.2PL0 Copyright (c) Steve Scherf et al.
# Submitted via: ExactAudioCopyFreeDBPlugin 1.0
#
DISCID=a40eff0d
DTITLE=瓜尒加 - DTSES骚动经典
DYEAR=2007
DGENRE=DTSES
TTITLE0=一块红布
TTITLE1=DON'T BREAK MY HEART
TTITLE2=回到拉萨
TTITLE3=怕你为自己流泪
TTITLE4=爱不爱我
TTITLE5=无地自容
TTITLE6=执着
TTITLE7=孤独的人是可耻的
TTITLE8=怒放的生命
TTITLE9=放心走吧
TTITLE10=笑着哭
TTITLE11=蓝莲花
TTITLE12=给我一点爱
EXTD=
EXTT0=
EXTT1=
EXTT2=
EXTT3=
EXTT4=
EXTT5=
EXTT6=
EXTT7=
EXTT8=
EXTT9=
EXTT10=
EXTT11=
EXTT12=
PLAYORDER=
